<?xml version="1.0" encoding="utf-8"?>
<!-- Generator: Adobe Illustrator 28.0.0, SVG Export Plug-In . SVG Version: 6.00 Build 0)  -->
<svg version="1.1" id="图层_1" xmlns="http://www.w3.org/2000/svg" xmlns:xlink="http://www.w3.org/1999/xlink" x="0px" y="0px"
	 viewBox="0 0 256 256" style="enable-background:new 0 0 256 256;" xml:space="preserve">
<style type="text/css">
	.st0{fill:#97D3FF;}
	.st1{fill:#A2DCEC;}
	.st2{fill:#92D3A7;}
	.st3{fill:#9FC9B2;}
	.st4{fill:#AAD89A;}
	.st5{fill:#586597;}
</style>
<g transform="matrix(.26458 0 0 .26458 177.621 -1282.338)">
	<circle class="st0" cx="-169.5" cy="5205.4" r="268.8"/>
	<ellipse class="st1" cx="-169.5" cy="5205.4" rx="134.4" ry="268.8"/>
	<path class="st2" d="M-492,5071l80.6,134.4l-80.6,134.4V5071z"/>
	<path class="st3" d="M-411.4,5205.4h201.6L-492,5339.8L-411.4,5205.4z"/>
	<path class="st4" d="M-411.4,5205.4h201.6L-492,5071L-411.4,5205.4z"/>
</g>
<g>
	<path class="st5" d="M135.6,21.3c-23.2-0.1-45.7,10.6-60.2,29.8c-1.3,1.8-0.7,4.3,1.2,5.3c37.7,18.8,76.2,19.4,114,1.5
		c7.6,11,12,24,12,38.1c0,14.1-4.2,27.1-11.8,38.2c-37.4-17.6-76-17.9-114.2,1.4c-2,1-2.6,3.5-1.2,5.3
		c19.3,25.7,52.9,36.1,83.4,25.9c14.3-4.8,26.4-13.8,35.2-25.1c0.6-0.4,1.1-1,1.4-1.6c9.1-12.5,14.4-27.8,14.4-44.1
		c0-32.9-21.5-61.1-51-70.8C151.1,22.6,143.3,21.4,135.6,21.3L135.6,21.3z M135.5,28.4c7,0,14.1,1.2,21,3.5
		c11.7,3.9,22.2,11.1,29.9,20.2C152.3,68.2,117.3,67.7,83.8,52C97.4,36.5,116.2,28.3,135.5,28.4L135.5,28.4z M135.4,127.9
		c16.7,0.1,34.3,4.4,51,12c-7.7,9-18.2,16.2-29.9,20.1c-26,8.7-55,0.7-72.7-20.1C100.6,132,118.7,127.9,135.4,127.9L135.4,127.9z"/>
	<path class="st5" d="M131.5,177.8v35.6h7.1v-35.6H131.5z"/>
	<path class="st5" d="M96,227.6v7.1h78.2v-7.1H96z"/>
	<path class="st5" d="M142.3,92.4c-2,0-3.6,1.5-3.6,3.5s1.5,3.6,3.5,3.6c0,0,0.1,0,0.1,0h63.9c2,0,3.6-1.5,3.6-3.5
		c0-2-1.5-3.6-3.5-3.6c0,0-0.1,0-0.1,0H142.3z"/>
	<path class="st5" d="M135.1,106.7c-2,0-3.5,1.6-3.5,3.6v56.8c0,2,1.5,3.6,3.5,3.6c2,0,3.6-1.5,3.6-3.5c0,0,0-0.1,0-0.1v-56.8
		c0-2-1.5-3.6-3.5-3.6C135.1,106.7,135.1,106.7,135.1,106.7L135.1,106.7z"/>
	<path class="st5" d="M135.1,21.3c-2,0-3.5,1.6-3.5,3.6v56.8c0,2,1.5,3.6,3.5,3.6c2,0,3.6-1.5,3.6-3.5c0,0,0-0.1,0-0.1V24.9
		c0-2-1.5-3.6-3.5-3.6C135.1,21.3,135.1,21.3,135.1,21.3L135.1,21.3z"/>
	<path class="st5" d="M138.2,21.5c-7.1-1-14.2,1.6-20,6.9c-7.8,7-14,18.5-17.9,33.4c-0.5,1.9,0.6,3.8,2.5,4.4
		c1.9,0.5,3.8-0.6,4.4-2.5c0,0,0,0,0-0.1c3.7-14,9.5-24.3,15.8-30c6.3-5.6,12.4-6.9,19.1-3.6c6.7,3.3,13.1,11.6,17.7,23.2
		c4.6,11.7,7.3,26.6,7.3,42.5c0,15.9-2.7,30.9-7.2,42.6c-4.5,11.7-11,20.1-17.7,23.5c-6.7,3.4-12.8,2.2-19.1-3.4
		c-6.3-5.6-12.2-15.8-15.9-29.8c-0.5-1.9-2.4-3.1-4.3-2.6s-3.1,2.4-2.6,4.3c0,0.1,0,0.1,0.1,0.2c4,14.9,10.2,26.3,18,33.3
		c7.8,6.9,17.9,9,27,4.4c9.1-4.6,16.2-14.5,21.1-27.2c4.9-12.7,7.7-28.4,7.7-45.2c0-16.7-2.9-32.4-7.8-45.1c-5-12.7-12-22.5-21.2-27
		C142.9,22.6,140.5,21.9,138.2,21.5L138.2,21.5z"/>
	<path class="st5" d="M120.8,199.1c-2,0-3.6,1.6-3.6,3.5c0,1,0.4,1.9,1.1,2.6l14.2,14.2c1.4,1.4,3.6,1.4,5,0l14.2-14.2
		c1.4-1.4,1.5-3.6,0.1-5c-1.4-1.4-3.6-1.5-5-0.1c0,0-0.1,0.1-0.1,0.1l-11.7,11.7l-11.7-11.7C122.7,199.5,121.8,199.1,120.8,199.1
		L120.8,199.1z"/>
	<path class="st5" d="M49.9,56.9c-2-0.1-3.6,1.5-3.7,3.5c0,0,0,0.1,0,0.1l0,71.1c0,2,1.6,3.6,3.6,3.6c0.5,0,1-0.1,1.5-0.3l78.2-35.6
		c1.8-0.8,2.6-2.9,1.8-4.7c-0.4-0.8-1-1.4-1.8-1.8L51.3,57.2C50.8,57,50.4,56.9,49.9,56.9L49.9,56.9z M53.3,66l66.1,30l-66,30
		L53.3,66z"/>
	<path class="st5" d="M49.6,56.9c-2,0.1-3.5,1.8-3.4,3.7c0,0.6,0.2,1.2,0.5,1.7L67,96l-20.2,33.7c-1.1,1.6-0.6,3.9,1.1,4.9
		c1.6,1.1,3.9,0.6,4.9-1.1c0-0.1,0.1-0.1,0.1-0.2l21.3-35.5c0.7-1.1,0.7-2.5,0-3.7L52.9,58.7C52.2,57.5,51,56.8,49.6,56.9L49.6,56.9
		z"/>
	<path class="st5" d="M71.1,92.5v7.1H128v-7.1H71.1z"/>
</g>
</svg>
